<svg xmlns="http://www.w3.org/2000/svg" viewBox="0 0 395.722 483.124"><defs><style>.a{fill:#cacbcb;}.b{fill:#515251;}.c{fill:#218266;}.d{fill:#18a37f;}.e{fill:#e8e8e8;}.f{fill:#ededed;}.g{fill:#fff;}</style></defs><g transform="translate(0 0)"><path class="a" d="M35.515,437.989V307.541S33.69,282.683,60.6,257.825C77.021,242.089,90.476,238.9,97.318,238.9S284.1,237.3,284.1,237.3s35.577,4.561,57.926,27.595c18.473,20.753,21.893,62.943,21.893,62.943V437.989s66.136,65.68,66.592,67.961,7.526,15.28-35.349,23.718c-70.925,8.21-117.221-17.788-122.466-23.034s-66.82-67.276-66.82-67.276Z" transform="translate(-35.489 -165.525)"/><path class="b" d="M268.114,438.03,110.3,439.4V313.284s3.877-71.381,67.048-75.943c102.169-3.193,91.906,97.836,91.906,97.836Z" transform="translate(60.312 -165.567)"/><path class="c" d="M97.47,315.38V218H90.4v95.783Z" transform="translate(34.829 -190.24)"/><rect class="b" width="45.839" height="27.823" transform="translate(132.336 27.823) rotate(180)"/><rect class="c" width="27.823" height="209.355" transform="translate(159.193 483.124) rotate(180)"/><ellipse class="d" cx="10.719" cy="10.692" rx="10.719" ry="10.692" transform="translate(118.247 120.543)"/><g transform="translate(170.612 147.033)"><rect class="e" width="183.813" height="108.554" transform="translate(0)"/><path class="f" d="M294.113,378.854,188.523,318.42,110.3,364.259V270.3H294.113Z" transform="translate(-110.3 -270.3)"/><path class="g" d="M110.6,288.388V270.6H291.676L187.911,334.228Z" transform="translate(-109.916 -269.916)"/><path class="g" d="M289.78,271.668,188.523,333.927l-76.855-45.383V271.9H289.78m4.333-1.6H110.3V289l78,46.3,105.818-65Z" transform="translate(-110.3 -270.3)"/></g></g></svg>