<svg id="Layer_1" data-name="Layer 1" xmlns="http://www.w3.org/2000/svg" viewBox="0 0 450.22 613.75"><defs><style>.cls-1{fill:#fff;}</style></defs><title>logo-verde</title><path class="cls-1" d="M113.49,67.46q19.16,0,27.74,8.91t8.57,27v5.56q0,12-3.78,19.83a24.07,24.07,0,0,1-12,11.58q10,3.8,14.14,12.36t4.12,21.06v12.69q0,18-9.35,27.51t-27.85,9.47H76.52V67.46ZM101,89.74V131h9.58q6.9,0,10.8-3.57t3.9-12.92v-8.68q0-8.46-3-12.25t-9.46-3.79Zm0,63.48v47.89h14q6.24,0,9.47-3.34c2.15-2.23,3.23-6.23,3.23-12V172.15q0-10.9-3.68-14.92t-12.13-4Z"/><path class="cls-1" d="M190.34,67.46V187.75q0,8.46,3.45,11.8t9.25,3.34a12.71,12.71,0,0,0,9.24-3.34q3.45-3.33,3.45-11.8V67.46H238.9V186.19q0,18.93-9.24,29.07t-27.29,10.13q-18,0-27.29-10.13t-9.24-29.07V67.46Z"/><path class="cls-1" d="M255.6,67.46h24.51V223.39H255.6Z"/><path class="cls-1" d="M297.92,67.46h24.51V201.11h40.31v22.28H297.92Z"/><path class="cls-1" d="M373.43,67.46h38.76q18.49,0,27.51,9.8t9,28.74v78.85q0,18.93-9,28.74t-27.51,9.8H373.43Zm24.51,22.28V201.11h13.81q5.79,0,9.13-3.34t3.34-11.8V104.89q0-8.48-3.34-11.81t-9.13-3.34Z"/><path class="cls-1" d="M128.42,372l16.7-110.71H179.2V417.18H156V305.36L139.11,417.18H116L97.68,306.92V417.18H76.3V261.25h34.08Z"/><path class="cls-1" d="M276.32,417.18H251.6l-4.24-28.29H217.29l-4.23,28.29h-22.5l24.95-155.93h35.86Zm-55.91-49.45H244l-11.8-78.86Z"/><path class="cls-1" d="M319.76,355l-7.58,14.26v47.89h-24.5V261.25h24.5v67.94l32.08-67.94h24.5l-34.08,69.5,34.08,86.43H343.59Z"/><path class="cls-1" d="M404.4,327H438v22.28H404.4V394.9h42.32v22.28H379.89V261.25h66.83v22.28H404.4Z"/><path class="cls-1" d="M76.52,455.05h38.76q18.48,0,27.51,9.8t9,28.73v78.85q0,18.95-9,28.74T115.28,611H76.52ZM101,477.32V588.69h13.81q5.79,0,9.13-3.34t3.34-11.8V492.47q0-8.46-3.34-11.81t-9.13-3.34Z"/><path class="cls-1" d="M165.39,492.47q0-18.93,9.58-29.07t27.62-10.14q18,0,27.62,10.14t9.58,29.07v81.08q0,18.93-9.58,29.07t-27.62,10.13q-18,0-27.62-10.13t-9.58-29.07Zm24.5,82.64q0,8.46,3.46,11.91a14.08,14.08,0,0,0,18.49,0c2.29-2.3,3.45-6.27,3.45-11.91v-84.2c0-5.64-1.16-9.62-3.45-11.92a14.11,14.11,0,0,0-18.49,0q-3.47,3.45-3.46,11.92Z"/><polygon class="cls-1" points="38.16 74.32 1.5 74.32 1.5 1 38.16 37.66 38.16 74.32"/><polygon class="cls-1" points="74.82 37.66 74.82 1 1.5 1 38.16 37.66 74.82 37.66"/></svg>