<svg xmlns="http://www.w3.org/2000/svg" viewBox="0 0 666.018 629.193"><defs><style>.a,.b,.c{fill:#bfbfbf;}.a,.b,.c,.g{stroke:#fff;}.a,.b,.c,.f,.g,.h,.j,.k,.l,.o{stroke-miterlimit:10;}.a{stroke-width:0.482px;}.a,.c{opacity:0.35;}.b,.g{stroke-width:0.498px;opacity:0.5;}.c{stroke-width:0.424px;}.d,.o{fill:#218266;}.e,.l{fill:#87cebc;}.f,.h,.j,.m,.n{fill:#3faf92;}.f,.h,.j,.k{stroke:#3faf92;}.f{stroke-width:0.209px;}.g{fill:#fff;}.h{stroke-width:0.259px;}.i{fill:#176e54;}.j{stroke-width:0.234px;}.k{fill:#2ab58b;stroke-width:0.18px;}.l{stroke:#106e51;stroke-width:0.491px;}.n{opacity:0.109;}.o{stroke:#218266;stroke-linejoin:round;stroke-width:0.124px;}.p{fill:#515251;}.q{fill:#7d7d7d;}.r{fill:#c1bfbf;}.r,.s{opacity:0.33;}.s{fill:#d2d2d1;}.t{fill:#e2e2e2;}.t,.u{opacity:0.11;}.u{fill:#e5e5e5;}.v{fill:#155642;}</style></defs><g transform="translate(0 0.018)"><g transform="translate(519.693 293.77)"><rect class="a" width="82.377" height="259.294"/><g transform="translate(14.559 18.982)"><rect class="b" width="9.03" height="9.03"/><rect class="b" width="9.03" height="9.03" transform="translate(0 18.613)"/><rect class="b" width="9.03" height="9.03" transform="translate(0 37.042)"/><rect class="b" width="9.03" height="9.03" transform="translate(22.299)"/><rect class="b" width="9.03" height="9.03" transform="translate(22.299 18.613)"/><rect class="b" width="9.03" height="9.03" transform="translate(22.299 37.042)"/><rect class="b" width="9.03" height="9.03" transform="translate(44.229)"/><rect class="b" width="9.03" height="9.03" transform="translate(44.229 18.613)"/><rect class="b" width="9.03" height="9.03" transform="translate(44.229 36.673)"/><rect class="b" width="9.03" height="9.03" transform="translate(0 55.102)"/><rect class="b" width="9.03" height="9.03" transform="translate(21.746 55.102)"/><rect class="b" width="9.03" height="9.03" transform="translate(0 72.978)"/><rect class="b" width="9.03" height="9.03" transform="translate(22.299 73.531)"/><rect class="b" width="9.03" height="9.03" transform="translate(0 91.96)"/><rect class="b" width="9.03" height="9.03" transform="translate(21.746 91.96)"/><rect class="b" width="9.03" height="9.03" transform="translate(44.229 55.286)"/><rect class="b" width="9.03" height="9.03" transform="translate(44.229 73.715)"/><rect class="b" width="9.03" height="9.03" transform="translate(44.229 91.776)"/></g><g transform="translate(14.559 132.503)"><rect class="b" width="9.03" height="9.03"/><rect class="b" width="9.03" height="9.03" transform="translate(0 18.613)"/><rect class="b" width="9.03" height="9.03" transform="translate(0 37.042)"/><rect class="b" width="9.03" height="9.03" transform="translate(22.299)"/><rect class="b" width="9.03" height="9.03" transform="translate(22.299 18.613)"/><rect class="b" width="9.03" height="9.03" transform="translate(22.299 37.042)"/><rect class="b" width="9.03" height="9.03" transform="translate(44.413)"/><rect class="b" width="9.03" height="9.03" transform="translate(44.413 18.613)"/><rect class="b" width="9.03" height="9.03" transform="translate(44.413 36.673)"/><rect class="b" width="9.03" height="9.03" transform="translate(0 55.102)"/><rect class="b" width="9.03" height="9.03" transform="translate(21.746 55.102)"/><rect class="b" width="9.03" height="9.03" transform="translate(0 72.978)"/><rect class="b" width="9.03" height="9.03" transform="translate(22.299 73.531)"/><rect class="b" width="9.03" height="9.03" transform="translate(0 91.96)"/><rect class="b" width="9.03" height="9.03" transform="translate(21.746 91.96)"/><rect class="b" width="9.03" height="9.03" transform="translate(44.413 55.286)"/><rect class="b" width="9.03" height="9.03" transform="translate(44.413 73.715)"/><rect class="b" width="9.03" height="9.03" transform="translate(44.413 91.776)"/></g></g><path class="c" d="M320.783,265.891V126.2H308.8v6.634H224.4V371.3h96.383Z" transform="translate(189.143 106.387)"/><g transform="translate(335.22 267.786)"><rect class="a" width="84.588" height="279.565"/><rect class="b" width="9.03" height="9.03" transform="translate(16.033 17.139)"/><rect class="b" width="9.03" height="9.03" transform="translate(16.033 35.568)"/><rect class="b" width="9.03" height="9.03" transform="translate(16.033 54.181)"/><rect class="b" width="9.03" height="9.03" transform="translate(38.332 17.139)"/><rect class="b" width="9.03" height="9.03" transform="translate(38.332 35.568)"/><rect class="b" width="9.03" height="9.03" transform="translate(38.332 54.181)"/><rect class="b" width="9.03" height="9.03" transform="translate(60.447 17.139)"/><rect class="b" width="9.03" height="9.03" transform="translate(60.447 35.568)"/><rect class="b" width="9.03" height="9.03" transform="translate(60.447 53.628)"/><rect class="b" width="9.03" height="9.03" transform="translate(16.033 72.057)"/><rect class="b" width="9.03" height="9.03" transform="translate(37.779 72.057)"/><rect class="b" width="9.03" height="9.03" transform="translate(16.033 89.933)"/><rect class="b" width="9.03" height="9.03" transform="translate(38.332 90.486)"/><rect class="b" width="9.03" height="9.03" transform="translate(16.033 108.914)"/><rect class="b" width="9.03" height="9.03" transform="translate(37.779 108.914)"/></g><g transform="translate(377.607 229.638)"><rect class="d" width="110.389" height="317.344"/><rect class="e" width="16.402" height="23.773" transform="translate(46.625 267.034)"/><rect class="f" width="12.163" height="17.692" transform="translate(46.625 273.115)"/><rect class="e" width="16.402" height="23.773" transform="translate(25.985 267.034)"/><rect class="f" width="12.163" height="17.692" transform="translate(25.985 273.115)"/><rect class="e" width="16.402" height="23.773" transform="translate(4.423 267.034)"/><rect class="f" width="12.163" height="17.692" transform="translate(4.423 273.115)"/><rect class="e" width="16.402" height="23.773" transform="translate(67.634 267.034)"/><rect class="f" width="12.163" height="17.692" transform="translate(67.634 273.115)"/><rect class="e" width="16.402" height="23.773" transform="translate(89.564 267.034)"/><rect class="f" width="12.163" height="17.692" transform="translate(89.564 273.115)"/><rect class="e" width="16.402" height="21.009" transform="translate(46.256 296.151)"/><rect class="f" width="12.163" height="15.48" transform="translate(46.256 301.496)"/><rect class="e" width="16.402" height="21.009" transform="translate(25.616 296.151)"/><rect class="f" width="12.163" height="15.48" transform="translate(25.616 301.496)"/><rect class="e" width="16.402" height="21.009" transform="translate(4.054 296.151)"/><rect class="f" width="12.163" height="15.48" transform="translate(4.054 301.496)"/><rect class="e" width="16.402" height="21.009" transform="translate(67.265 296.151)"/><rect class="f" width="12.163" height="15.48" transform="translate(67.265 301.496)"/><rect class="e" width="16.402" height="21.009" transform="translate(89.196 296.151)"/><rect class="f" width="12.163" height="15.48" transform="translate(89.196 301.496)"/><rect class="e" width="16.402" height="23.773" transform="translate(46.625 238.653)"/><rect class="f" width="12.163" height="17.692" transform="translate(46.625 244.735)"/><rect class="e" width="16.402" height="23.773" transform="translate(25.985 238.653)"/><rect class="f" width="12.163" height="17.692" transform="translate(25.985 244.735)"/><rect class="e" width="16.402" height="23.773" transform="translate(4.423 238.653)"/><rect class="f" width="12.163" height="17.692" transform="translate(4.423 244.735)"/><rect class="e" width="16.402" height="23.773" transform="translate(67.634 238.653)"/><rect class="f" width="12.163" height="17.692" transform="translate(67.634 244.735)"/><rect class="e" width="16.402" height="23.773" transform="translate(89.38 238.653)"/><rect class="f" width="12.163" height="17.692" transform="translate(89.38 244.735)"/><rect class="e" width="16.402" height="23.773" transform="translate(46.809 209.72)"/><rect class="f" width="12.163" height="17.692" transform="translate(46.809 215.802)"/><rect class="e" width="16.402" height="23.773" transform="translate(26.169 209.72)"/><rect class="f" width="12.163" height="17.692" transform="translate(26.169 215.802)"/><rect class="e" width="16.402" height="23.773" transform="translate(4.607 209.72)"/><rect class="f" width="12.163" height="17.692" transform="translate(4.607 215.802)"/><rect class="e" width="16.402" height="23.773" transform="translate(67.818 209.72)"/><rect class="f" width="12.163" height="17.692" transform="translate(67.818 215.802)"/><rect class="e" width="16.402" height="23.773" transform="translate(89.564 209.72)"/><rect class="f" width="12.163" height="17.692" transform="translate(89.564 215.802)"/><rect class="e" width="16.402" height="23.773" transform="translate(46.809 180.787)"/><rect class="f" width="12.163" height="17.692" transform="translate(46.809 186.868)"/><rect class="e" width="16.402" height="23.773" transform="translate(26.169 180.787)"/><rect class="f" width="12.163" height="17.692" transform="translate(26.169 186.868)"/><rect class="e" width="16.402" height="23.773" transform="translate(4.607 180.787)"/><rect class="f" width="12.163" height="17.692" transform="translate(4.607 186.868)"/><rect class="e" width="16.402" height="23.773" transform="translate(67.818 180.787)"/><rect class="f" width="12.163" height="17.692" transform="translate(67.818 186.868)"/><rect class="e" width="16.402" height="23.773" transform="translate(89.748 180.787)"/><rect class="f" width="12.163" height="17.692" transform="translate(89.748 186.868)"/><rect class="e" width="16.402" height="23.773" transform="translate(46.809 152.406)"/><rect class="f" width="12.163" height="17.692" transform="translate(46.809 158.672)"/><rect class="e" width="16.402" height="23.773" transform="translate(26.169 152.406)"/><rect class="f" width="12.163" height="17.692" transform="translate(26.169 158.672)"/><rect class="e" width="16.402" height="23.773" transform="translate(4.607 152.406)"/><rect class="f" width="12.163" height="17.692" transform="translate(4.607 158.672)"/><rect class="e" width="16.402" height="23.773" transform="translate(67.818 152.406)"/><rect class="f" width="12.163" height="17.692" transform="translate(67.818 158.672)"/><rect class="e" width="16.402" height="23.773" transform="translate(89.748 152.406)"/><rect class="f" width="12.163" height="17.692" transform="translate(89.748 158.672)"/><rect class="e" width="16.402" height="23.773" transform="translate(46.994 123.473)"/><rect class="f" width="12.163" height="17.692" transform="translate(46.994 129.739)"/><rect class="e" width="16.402" height="23.773" transform="translate(26.353 123.473)"/><rect class="f" width="12.163" height="17.692" transform="translate(26.353 129.739)"/><rect class="e" width="16.402" height="23.773" transform="translate(4.792 123.473)"/><rect class="f" width="12.163" height="17.692" transform="translate(4.792 129.739)"/><rect class="e" width="16.402" height="23.773" transform="translate(68.002 123.473)"/><rect class="f" width="12.163" height="17.692" transform="translate(68.002 129.739)"/><rect class="e" width="16.402" height="23.773" transform="translate(89.933 123.473)"/><rect class="f" width="12.163" height="17.692" transform="translate(89.933 129.739)"/><rect class="e" width="16.402" height="23.773" transform="translate(47.178 94.724)"/><rect class="f" width="12.163" height="17.692" transform="translate(47.178 100.806)"/><rect class="e" width="16.402" height="23.773" transform="translate(26.538 94.724)"/><rect class="f" width="12.163" height="17.692" transform="translate(26.538 100.806)"/><rect class="e" width="16.402" height="23.773" transform="translate(4.976 94.724)"/><rect class="f" width="12.163" height="17.692" transform="translate(4.976 100.806)"/><rect class="e" width="16.402" height="23.773" transform="translate(68.187 94.724)"/><rect class="f" width="12.163" height="17.692" transform="translate(68.187 100.806)"/><rect class="e" width="16.402" height="23.773" transform="translate(89.933 94.724)"/><rect class="f" width="12.163" height="17.692" transform="translate(89.933 100.806)"/><rect class="e" width="16.402" height="23.773" transform="translate(46.994 66.344)"/><rect class="f" width="12.163" height="17.692" transform="translate(46.994 72.61)"/><rect class="e" width="16.402" height="23.773" transform="translate(26.353 66.344)"/><rect class="f" width="12.163" height="17.692" transform="translate(26.353 72.61)"/><rect class="e" width="16.402" height="23.773" transform="translate(4.792 66.344)"/><rect class="f" width="12.163" height="17.692" transform="translate(4.792 72.61)"/><rect class="e" width="16.402" height="23.773" transform="translate(68.002 66.344)"/><rect class="f" width="12.163" height="17.692" transform="translate(68.002 72.61)"/><rect class="e" width="16.402" height="23.773" transform="translate(89.933 66.344)"/><rect class="f" width="12.163" height="17.692" transform="translate(89.933 72.61)"/><rect class="e" width="16.402" height="23.773" transform="translate(47.178 37.411)"/><rect class="f" width="12.163" height="17.692" transform="translate(47.178 43.676)"/><rect class="e" width="16.402" height="23.773" transform="translate(26.538 37.411)"/><rect class="f" width="12.163" height="17.692" transform="translate(26.538 43.676)"/><rect class="e" width="16.402" height="23.773" transform="translate(4.976 37.411)"/><rect class="f" width="12.163" height="17.692" transform="translate(4.976 43.676)"/><rect class="e" width="16.402" height="23.773" transform="translate(68.187 37.411)"/><rect class="f" width="12.163" height="17.692" transform="translate(68.187 43.676)"/><rect class="e" width="16.402" height="23.773" transform="translate(90.117 37.411)"/><rect class="f" width="12.163" height="17.692" transform="translate(90.117 43.676)"/><rect class="e" width="16.402" height="23.773" transform="translate(47.362 7.187)"/><rect class="f" width="12.163" height="17.692" transform="translate(47.362 13.269)"/><rect class="e" width="16.402" height="23.773" transform="translate(26.722 7.187)"/><rect class="f" width="12.163" height="17.692" transform="translate(26.722 13.269)"/><rect class="e" width="16.402" height="23.773" transform="translate(5.344 7.187)"/><rect class="f" width="12.163" height="17.692" transform="translate(5.344 13.269)"/><rect class="e" width="16.402" height="23.773" transform="translate(68.555 7.187)"/><rect class="f" width="12.163" height="17.692" transform="translate(68.555 13.269)"/><rect class="e" width="16.402" height="23.773" transform="translate(90.301 7.187)"/><rect class="f" width="12.163" height="17.692" transform="translate(90.301 13.269)"/></g><rect class="g" width="9.03" height="9.03" transform="translate(470.119 345.924)"/><rect class="g" width="9.03" height="9.03" transform="translate(470.119 364.537)"/><rect class="g" width="9.03" height="9.03" transform="translate(470.119 382.966)"/><path class="a" d="M62.4,404.75V254H74.194V173.1l78.323,33.725v32.8l25.432-6.634V404.75Z" transform="translate(52.596 145.918)"/><g transform="translate(184.288 159.424)"><rect class="d" width="136.926" height="393.455"/><rect class="e" width="20.272" height="29.486" transform="translate(57.867 331.166)"/><rect class="h" width="15.112" height="21.93" transform="translate(57.867 338.722)"/><rect class="e" width="20.272" height="29.486" transform="translate(32.25 331.166)"/><rect class="h" width="15.112" height="21.93" transform="translate(32.25 338.722)"/><rect class="e" width="20.272" height="29.486" transform="translate(5.529 331.166)"/><rect class="h" width="15.112" height="21.93" transform="translate(5.529 338.722)"/><rect class="e" width="20.272" height="29.486" transform="translate(83.851 331.166)"/><rect class="h" width="15.112" height="21.93" transform="translate(83.851 338.722)"/><rect class="e" width="20.272" height="29.486" transform="translate(110.942 331.166)"/><rect class="h" width="15.112" height="21.93" transform="translate(110.942 338.722)"/><rect class="e" width="20.272" height="25.985" transform="translate(57.314 367.286)"/><rect class="h" width="15.112" height="19.35" transform="translate(57.314 373.921)"/><rect class="e" width="20.272" height="25.985" transform="translate(31.882 367.286)"/><rect class="h" width="15.112" height="19.35" transform="translate(31.882 373.921)"/><rect class="e" width="20.272" height="25.985" transform="translate(5.16 367.286)"/><rect class="h" width="15.112" height="19.35" transform="translate(5.16 373.921)"/><rect class="e" width="20.272" height="25.985" transform="translate(83.483 367.286)"/><rect class="h" width="15.112" height="19.35" transform="translate(83.483 373.921)"/><rect class="e" width="20.272" height="25.985" transform="translate(110.573 367.286)"/><rect class="h" width="15.112" height="19.35" transform="translate(110.573 373.921)"/><rect class="e" width="20.272" height="29.486" transform="translate(57.682 295.967)"/><rect class="h" width="15.112" height="21.93" transform="translate(57.682 303.523)"/><rect class="e" width="20.272" height="29.486" transform="translate(32.066 295.967)"/><rect class="h" width="15.112" height="21.93" transform="translate(32.066 303.523)"/><rect class="e" width="20.272" height="29.486" transform="translate(5.529 295.967)"/><rect class="h" width="15.112" height="21.93" transform="translate(5.529 303.523)"/><rect class="e" width="20.272" height="29.486" transform="translate(83.851 295.967)"/><rect class="h" width="15.112" height="21.93" transform="translate(83.851 303.523)"/><rect class="e" width="20.272" height="29.486" transform="translate(110.942 295.967)"/><rect class="h" width="15.112" height="21.93" transform="translate(110.942 303.523)"/><rect class="e" width="20.272" height="29.486" transform="translate(58.051 260.031)"/><rect class="h" width="15.112" height="21.93" transform="translate(58.051 267.771)"/><rect class="e" width="20.272" height="29.486" transform="translate(32.435 260.031)"/><rect class="h" width="15.112" height="21.93" transform="translate(32.435 267.771)"/><rect class="e" width="20.272" height="29.486" transform="translate(5.713 260.031)"/><rect class="h" width="15.112" height="21.93" transform="translate(5.713 267.771)"/><rect class="e" width="20.272" height="29.486" transform="translate(84.035 260.031)"/><rect class="h" width="15.112" height="21.93" transform="translate(84.035 267.771)"/><rect class="e" width="20.272" height="29.486" transform="translate(111.126 260.031)"/><rect class="h" width="15.112" height="21.93" transform="translate(111.126 267.771)"/><rect class="e" width="20.272" height="29.486" transform="translate(58.051 224.279)"/><rect class="h" width="15.112" height="21.93" transform="translate(58.051 231.835)"/><rect class="e" width="20.272" height="29.486" transform="translate(32.435 224.279)"/><rect class="h" width="15.112" height="21.93" transform="translate(32.435 231.835)"/><rect class="e" width="20.272" height="29.486" transform="translate(5.897 224.279)"/><rect class="h" width="15.112" height="21.93" transform="translate(5.897 231.835)"/><rect class="e" width="20.272" height="29.486" transform="translate(84.22 224.279)"/><rect class="h" width="15.112" height="21.93" transform="translate(84.22 231.835)"/><rect class="e" width="20.272" height="29.486" transform="translate(111.31 224.279)"/><rect class="h" width="15.112" height="21.93" transform="translate(111.31 231.835)"/><rect class="e" width="20.272" height="29.486" transform="translate(58.051 189.08)"/><rect class="h" width="15.112" height="21.93" transform="translate(58.051 196.82)"/><rect class="e" width="20.272" height="29.486" transform="translate(32.435 189.08)"/><rect class="h" width="15.112" height="21.93" transform="translate(32.435 196.82)"/><rect class="e" width="20.272" height="29.486" transform="translate(5.713 189.08)"/><rect class="h" width="15.112" height="21.93" transform="translate(5.713 196.82)"/><rect class="e" width="20.272" height="29.486" transform="translate(84.035 189.08)"/><rect class="h" width="15.112" height="21.93" transform="translate(84.035 196.82)"/><rect class="e" width="20.272" height="29.486" transform="translate(111.126 189.08)"/><rect class="h" width="15.112" height="21.93" transform="translate(111.126 196.82)"/><rect class="e" width="20.272" height="29.486" transform="translate(58.235 153.328)"/><rect class="h" width="15.112" height="21.93" transform="translate(58.235 160.884)"/><rect class="e" width="20.272" height="29.486" transform="translate(32.619 153.328)"/><rect class="h" width="15.112" height="21.93" transform="translate(32.619 160.884)"/><rect class="e" width="20.272" height="29.486" transform="translate(5.897 153.328)"/><rect class="h" width="15.112" height="21.93" transform="translate(5.897 160.884)"/><rect class="e" width="20.272" height="29.486" transform="translate(84.404 153.328)"/><rect class="h" width="15.112" height="21.93" transform="translate(84.404 160.884)"/><rect class="e" width="20.272" height="29.486" transform="translate(111.494 153.328)"/><rect class="h" width="15.112" height="21.93" transform="translate(111.494 160.884)"/><rect class="e" width="20.272" height="29.486" transform="translate(58.419 117.576)"/><rect class="h" width="15.112" height="21.93" transform="translate(58.419 125.132)"/><rect class="e" width="20.272" height="29.486" transform="translate(32.803 117.576)"/><rect class="h" width="15.112" height="21.93" transform="translate(32.803 125.132)"/><rect class="e" width="20.272" height="29.486" transform="translate(6.082 117.576)"/><rect class="h" width="15.112" height="21.93" transform="translate(6.082 125.132)"/><rect class="e" width="20.272" height="29.486" transform="translate(84.404 117.576)"/><rect class="h" width="15.112" height="21.93" transform="translate(84.404 125.132)"/><rect class="e" width="20.272" height="29.486" transform="translate(111.494 117.576)"/><rect class="h" width="15.112" height="21.93" transform="translate(111.494 125.132)"/><rect class="e" width="20.272" height="29.486" transform="translate(58.235 82.377)"/><rect class="h" width="15.112" height="21.93" transform="translate(58.235 89.933)"/><rect class="e" width="20.272" height="29.486" transform="translate(32.803 82.377)"/><rect class="h" width="15.112" height="21.93" transform="translate(32.803 89.933)"/><rect class="e" width="20.272" height="29.486" transform="translate(6.082 82.377)"/><rect class="h" width="15.112" height="21.93" transform="translate(6.082 89.933)"/><rect class="e" width="20.272" height="29.486" transform="translate(84.404 82.377)"/><rect class="h" width="15.112" height="21.93" transform="translate(84.404 89.933)"/><rect class="e" width="20.272" height="29.486" transform="translate(111.494 82.377)"/><rect class="h" width="15.112" height="21.93" transform="translate(111.494 89.933)"/><rect class="e" width="20.272" height="29.486" transform="translate(58.604 46.441)"/><rect class="h" width="15.112" height="21.93" transform="translate(58.604 54.181)"/><rect class="e" width="20.272" height="29.486" transform="translate(32.988 46.441)"/><rect class="h" width="15.112" height="21.93" transform="translate(32.988 54.181)"/><rect class="e" width="20.272" height="29.486" transform="translate(6.266 46.441)"/><rect class="h" width="15.112" height="21.93" transform="translate(6.266 54.181)"/><rect class="e" width="20.272" height="29.486" transform="translate(84.588 46.441)"/><rect class="h" width="15.112" height="21.93" transform="translate(84.588 54.181)"/><rect class="e" width="20.272" height="29.486" transform="translate(111.679 46.441)"/><rect class="h" width="15.112" height="21.93" transform="translate(111.679 54.181)"/><rect class="e" width="20.272" height="29.486" transform="translate(58.788 9.03)"/><rect class="h" width="15.112" height="21.93" transform="translate(58.788 16.586)"/><rect class="e" width="20.272" height="29.486" transform="translate(33.172 9.03)"/><rect class="h" width="15.112" height="21.93" transform="translate(33.172 16.586)"/><rect class="e" width="20.272" height="29.486" transform="translate(6.634 9.03)"/><rect class="h" width="15.112" height="21.93" transform="translate(6.634 16.586)"/><rect class="e" width="20.272" height="29.486" transform="translate(84.957 9.03)"/><rect class="h" width="15.112" height="21.93" transform="translate(84.957 16.586)"/><rect class="e" width="20.272" height="29.486" transform="translate(112.047 9.03)"/><rect class="h" width="15.112" height="21.93" transform="translate(112.047 16.586)"/></g><g transform="translate(282.145 388.31)"><rect class="d" width="128.817" height="95.461" transform="translate(1.474 69.661)"/><rect class="i" width="132.688" height="4.607" transform="translate(0 64.869)"/><rect class="d" width="115.549" height="59.709" transform="translate(8.109 5.344)"/><rect class="i" width="123.105" height="5.344" transform="translate(4.607)"/><rect class="i" width="19.166" height="26.353" transform="translate(20.825 127.343)"/><rect class="i" width="24.142" height="4.976" transform="translate(18.429 153.512)"/><rect class="j" width="19.166" height="2.396" transform="translate(20.825 158.488)"/><rect class="e" width="11.979" height="4.607" transform="translate(24.326 148.905)"/><rect class="e" width="12.163" height="11.61" transform="translate(24.326 135.268)"/><rect class="i" width="19.166" height="26.353" transform="translate(92.328 126.79)"/><rect class="i" width="24.142" height="4.976" transform="translate(89.933 153.144)"/><rect class="j" width="19.166" height="2.396" transform="translate(92.328 158.119)"/><rect class="e" width="11.979" height="4.607" transform="translate(96.014 148.536)"/><rect class="e" width="12.163" height="11.61" transform="translate(96.014 134.715)"/><rect class="i" width="19.166" height="26.353" transform="translate(92.328 81.64)"/><rect class="i" width="24.142" height="4.976" transform="translate(89.933 107.993)"/><rect class="j" width="19.166" height="2.396" transform="translate(92.328 112.969)"/><rect class="e" width="11.979" height="4.607" transform="translate(95.83 103.386)"/><rect class="e" width="12.163" height="11.61" transform="translate(95.83 89.564)"/><rect class="i" width="19.166" height="26.353" transform="translate(56.208 81.64)"/><rect class="i" width="24.142" height="4.976" transform="translate(53.812 107.993)"/><rect class="j" width="19.166" height="2.396" transform="translate(56.208 112.969)"/><rect class="e" width="11.979" height="4.607" transform="translate(59.709 103.386)"/><rect class="e" width="12.163" height="11.61" transform="translate(59.709 89.564)"/><rect class="i" width="19.166" height="26.353" transform="translate(20.825 81.64)"/><rect class="i" width="24.142" height="4.976" transform="translate(18.429 107.993)"/><rect class="j" width="19.166" height="2.396" transform="translate(20.825 112.969)"/><rect class="e" width="11.979" height="4.607" transform="translate(24.326 103.386)"/><rect class="e" width="12.163" height="11.61" transform="translate(24.326 89.564)"/><rect class="i" width="19.166" height="26.353" transform="translate(20.825 18.245)"/><rect class="i" width="24.142" height="4.976" transform="translate(18.245 44.598)"/><rect class="j" width="19.166" height="2.396" transform="translate(20.825 49.574)"/><rect class="e" width="11.979" height="4.607" transform="translate(24.326 39.991)"/><rect class="e" width="12.163" height="11.61" transform="translate(24.326 26.169)"/><rect class="i" width="19.166" height="26.353" transform="translate(56.576 18.245)"/><rect class="i" width="24.142" height="4.976" transform="translate(54.181 44.598)"/><rect class="j" width="19.166" height="2.396" transform="translate(56.576 49.574)"/><rect class="e" width="11.979" height="4.607" transform="translate(60.262 39.991)"/><rect class="e" width="12.163" height="11.61" transform="translate(60.262 26.169)"/><rect class="i" width="19.166" height="26.353" transform="translate(92.144 18.245)"/><rect class="i" width="24.142" height="4.976" transform="translate(89.748 44.598)"/><rect class="j" width="19.166" height="2.396" transform="translate(92.144 49.574)"/><rect class="e" width="11.979" height="4.607" transform="translate(95.646 39.991)"/><rect class="e" width="12.163" height="11.61" transform="translate(95.646 26.169)"/><rect class="i" width="23.957" height="38.332" transform="translate(54.181 126.79)"/><rect class="j" width="16.77" height="34.462" transform="translate(57.682 130.66)"/></g><g transform="translate(120.709 438.621)"><rect class="k" width="95.277" height="107.256" transform="translate(4.423 7.924)"/><rect class="d" width="21.562" height="29.486" transform="translate(65.054 17.876)"/><rect class="d" width="27.09" height="5.529" transform="translate(62.289 47.362)"/><rect class="d" width="21.562" height="2.764" transform="translate(65.054 53.075)"/><rect class="e" width="13.453" height="5.16" transform="translate(69.108 42.202)"/><rect class="e" width="13.637" height="12.9" transform="translate(69.108 26.906)"/><rect class="d" width="21.562" height="29.486" transform="translate(18.06 17.876)"/><rect class="d" width="27.09" height="5.529" transform="translate(15.48 47.362)"/><rect class="d" width="21.562" height="2.764" transform="translate(18.06 53.075)"/><rect class="e" width="13.453" height="5.16" transform="translate(22.115 42.202)"/><rect class="e" width="13.637" height="12.9" transform="translate(22.115 26.906)"/><rect class="d" width="21.562" height="29.486" transform="translate(18.06 72.057)"/><rect class="d" width="27.09" height="5.529" transform="translate(15.48 101.727)"/><rect class="d" width="21.562" height="2.764" transform="translate(18.06 107.256)"/><rect class="e" width="13.453" height="5.16" transform="translate(22.115 96.567)"/><rect class="e" width="13.637" height="12.9" transform="translate(22.115 81.087)"/><rect class="i" width="27.09" height="43.123" transform="translate(62.289 72.057)"/><rect class="d" width="19.166" height="38.701" transform="translate(66.528 76.48)"/><rect class="i" width="104.123" height="5.713"/></g><g transform="translate(452.98 330.259)"><rect class="d" width="84.588" height="215.433" transform="translate(8.293 7.74)"/><g transform="translate(17.876 82.745)"><rect class="l" width="16.217" height="9.214"/><rect class="l" width="16.217" height="9.214" transform="translate(0 9.214)"/></g><g transform="translate(41.833 145.219)"><rect class="l" width="16.217" height="9.214"/><rect class="l" width="16.217" height="9.214" transform="translate(0 9.214)"/></g><g transform="translate(66.159 145.219)"><rect class="l" width="16.217" height="9.214"/><rect class="l" width="16.217" height="9.214" transform="translate(0 9.214)"/></g><g transform="translate(17.876 145.219)"><rect class="l" width="16.217" height="9.214"/><rect class="l" width="16.217" height="9.214" transform="translate(0 9.214)"/></g><g transform="translate(17.876 112.969)"><rect class="l" width="16.217" height="9.214"/><rect class="l" width="16.217" height="9.214" transform="translate(0 9.214)"/></g><g transform="translate(41.833 112.969)"><rect class="l" width="16.217" height="9.214"/><rect class="l" width="16.217" height="9.214" transform="translate(0 9.214)"/></g><g transform="translate(66.159 113.153)"><rect class="l" width="16.217" height="9.214"/><rect class="l" width="16.217" height="9.214" transform="translate(0 9.214)"/></g><g transform="translate(66.159 82.745)"><rect class="l" width="16.217" height="9.214"/><rect class="l" width="16.217" height="9.214" transform="translate(0 9.214)"/></g><g transform="translate(42.018 82.745)"><rect class="l" width="16.217" height="9.214"/><rect class="l" width="16.217" height="9.214" transform="translate(0 9.214)"/></g><g transform="translate(42.018 50.311)"><rect class="l" width="16.217" height="9.214"/><rect class="l" width="16.217" height="9.214" transform="translate(0 9.214)"/></g><g transform="translate(66.712 50.864)"><rect class="l" width="16.217" height="9.214"/><rect class="l" width="16.217" height="9.214" transform="translate(0 9.214)"/></g><g transform="translate(18.429 50.311)"><rect class="l" width="16.217" height="9.214"/><rect class="l" width="16.217" height="9.214" transform="translate(0 9.214)"/></g><g transform="translate(18.429 21.93)"><rect class="l" width="16.217" height="9.214"/><rect class="l" width="16.217" height="9.214" transform="translate(0 9.214)"/></g><g transform="translate(42.571 21.93)"><rect class="l" width="16.217" height="9.214"/><rect class="l" width="16.217" height="9.214" transform="translate(0 9.214)"/></g><g transform="translate(66.712 21.93)"><rect class="l" width="16.217" height="9.214"/><rect class="l" width="16.217" height="9.214" transform="translate(0 9.214)"/></g><rect class="i" width="26.722" height="46.072" transform="translate(35.199 177.101)"/><rect class="e" width="10.136" height="22.852" transform="translate(37.779 191.475)"/><rect class="e" width="9.583" height="22.852" transform="translate(49.758 191.475)"/><rect class="e" width="21.562" height="8.293" transform="translate(37.779 181.34)"/><rect class="e" width="21.562" height="7.187" transform="translate(37.779 215.986)"/><rect class="d" width="101.543" height="6.45"/></g><g transform="translate(377.054 402.132)"><g transform="translate(4.239 14.006)"><rect class="m" width="92.697" height="136.373" transform="translate(1.106 1.29)"/><path class="n" d="M299.781,362.373h-92.7c.184.184.369.369.553.369-.184-25.616.369-51.232.369-76.848V228.949a1.778,1.778,0,0,1,.553-2.58,44.907,44.907,0,0,0,4.976.184v-.184a29.771,29.771,0,0,1-5.713-.369.181.181,0,0,0-.184.184v68.187c0,15.665,0,31.329-.184,46.809v13.269c0,2.58.369,5.344-.553,7.924,0,.184.369.369.553.369,30.96.184,61.737,0,92.7,0C300.334,362.926,299.966,362.373,299.781,362.373Z" transform="translate(-206.9 -225.631)"/><path class="n" d="M299.8,362.1H207.1l.553.553c0-35.015.369-70.03.369-104.86V228.864c-.553-1.106-.369-1.843.553-2.4,1.659,0,3.317.184,4.976.184,2.949,0,5.9.184,8.846.184,8.293,0,16.586.184,24.879.184l.184-.184c-9.214,0-18.245,0-27.459-.184-3.87,0-8.109.184-11.979-.553l-.184.184V298.71c0,15.3,0,30.408-.184,45.7v10.32c0,2.58.184,5.344-.553,7.74a.831.831,0,0,0,.553.553c30.96.184,61.737,0,92.7,0C300.35,362.658,299.981,362.1,299.8,362.1Z" transform="translate(-206.731 -225.547)"/><path class="n" d="M215.2,226.584c10.689,0,21.193.184,31.882.184l.184-.184c-10.689,0-21.193,0-31.882-.184Z" transform="translate(-199.904 -225.294)"/><path class="n" d="M300.019,362.173H207.875c-.737-.553-.184-3.133-.184-4.054.737-44.045.369-88.09.553-132.319-.184.184-.369.369-.369.553,16.77-.184,33.356.369,50.126.369h40.175c2.4,0,2.4,0,2.4,2.58h.184a13.95,13.95,0,0,1,.184-2.764H258c-9.952,0-19.9,0-29.855-.184h-10.32c-2.58,0-6.819.369-9.583-.553-.184,0-.369.369-.369.553-.184,22.667,0,45.335,0,68v59.894a36.346,36.346,0,0,1-.369,7.74.4.4,0,0,0,.369.369h92.7C300.388,362.726,300.2,362.173,300.019,362.173Z" transform="translate(-206.401 -225.8)"/><path class="n" d="M257.8,234.6v12.716a.18.18,0,0,1,.184.184V234.784Z" transform="translate(-163.997 -218.383)"/><path class="n" d="M299.913,362.5H216.8c-2.58,0-5.529.553-7.924,0-.553.184-.921.184-1.29-.369v-2.027c.184-24.695.369-49.389.369-74.084V232.213c0-.921-.369-4.976.184-5.344.921-.553,4.792-.184,5.16-.184,3.87,0,7.74.184,11.794.184,11.979.184,23.957.184,36.121.184H300.1c.737.553.184,3.133.184,4.054-.369,44.045-.184,88.09-.369,132.135,0,.184.553-.184.553-.369.184-22.667,0-45.335,0-68V234.977a36.345,36.345,0,0,1,.369-7.74c0-.184-.369-.369-.369-.369H225.092c-5.529,0-11.426.369-16.955-.369l-.369.184V352.922a59.935,59.935,0,0,1-.369,9.952c0,.184.369.369.369.369,30.96.184,61.737,0,92.7,0A3.44,3.44,0,0,0,299.913,362.5Z" transform="translate(-206.478 -225.21)"/><path class="n" d="M300,362.289H207.3c.184.184.369.369.553.369-.184-7.187,0-14.374.184-21.562.184-15.664.184-31.329.184-46.809V226.1c-.184.184-.369.369-.369.553,5.9-.184,11.794,0,17.507,0,11.979.184,24.142.184,36.121.184h38.885c1.106.737.369,2.949.369,4.054-1.106,44.045-.369,88.09-.369,132.135,0,.184.369,0,.369,0v-115c0-7-.369-14.19.369-21.193l-.184-.184H217.8c-2.949,0-6.634.369-9.4-.369-.184,0-.369.369-.369.553-.184,22.667,0,45.335,0,68v59.894a36.348,36.348,0,0,1-.369,7.74c0,.184.369.369.553.369,30.96.184,61.737,0,92.7,0C300.55,362.842,300.181,362.289,300,362.289Z" transform="translate(-206.563 -225.547)"/><path class="n" d="M300.181,362.573H217.067c-2.58,0-5.529.553-7.924,0-.553.184-1.106.184-1.29-.369v-2.027c.184-24.695.369-49.389.369-74.268V232.1c0-.737-.369-4.976.184-5.344.737-.553,4.976-.184,5.16-.184,3.87,0,7.924,0,11.794.184,11.979.184,24.142.184,36.121.184h38.885c.737.553.184,3.133.184,3.87-.184,44.045-.184,88.09-.369,132.319,0,.184.369-.184.369-.369V236.7c0-3.133-.369-6.634.369-9.767,0-.184-.369-.369-.553-.369-14.19-.184-28.565,0-42.755,0H227.756c-6.45,0-13.269.737-19.719-.369-.184,0-.369.369-.369.553-.184,22.667,0,45.335,0,68v46.809c0,6.819.553,14.19-.369,21.009a.4.4,0,0,0,.369.369c30.96.184,61.737,0,92.7,0C300.734,363.126,300.366,362.573,300.181,362.573Z" transform="translate(-206.563 -225.463)"/><path class="n" d="M207.637,362.136c1.106-21.009.553-42.2.553-63.211V227.237a.965.965,0,0,1,1.474-.369c2.4-.369,5.529.184,8.109.184,9.952.184,19.9.184,29.855.369,17.876,0,35.568,0,53.444.184l-.553-.553c.184,22.852-.184,45.7-.369,68.371v68.187c0,.184.369.184.369,0V295.424c0-15.665,0-31.329.184-46.993V235.162c0-2.58-.369-5.344.553-7.74a.831.831,0,0,0-.553-.553c-15.48-.184-30.96,0-46.256,0H225.329c-5.529,0-11.426.369-16.955-.369l-.184.184v63.948c0,23.957.369,47.731-.553,71.688C207.453,362.136,207.637,362.136,207.637,362.136Z" transform="translate(-206.347 -225.21)"/><path class="n" d="M300.718,362.489H210.6c-1.106.553-1.843.369-2.4-.553v-2.027c0-2.58.184-4.976.184-7.556.369-19.35.369-38.7.369-58.051V226.853a1.894,1.894,0,0,1,2.211-.184h7.187c27.643.369,55.471.184,83.114.369-.184-.184-.369-.369-.553-.369.184,7.187,0,14.374-.184,21.562-.184,15.664-.184,31.145-.184,46.809v68.187c0,.184.184.184.184,0V236.989c0-3.133-.369-6.819.369-9.952,0-.184-.369-.369-.553-.369-14.374-.184-28.565,0-42.939,0H217.236a53.482,53.482,0,0,1-9.4-.369c-.184,0-.369.369-.369.553-.184,22.667,0,45.335,0,68v46.809c0,7,.184,14.19-.369,21.193a.18.18,0,0,0,.184.184h92.7C300.9,362.858,300.9,362.489,300.718,362.489Z" transform="translate(-206.731 -225.378)"/><path class="n" d="M258.016,226.8c-1.106,23.773-.553,47.731-.553,71.688v63.948c0,.184.369.184.369,0V298.488c0-23.957-.369-47.915.553-71.688Z" transform="translate(-164.398 -224.957)"/><path class="n" d="M299.966,362.428h-92.7c.184.184.369.369.553.369-.184-11.794.184-23.773.184-35.568V234.164c0-2.027-.184-4.239,0-6.266.184-1.474,0-1.29,1.474-1.474,2.027-.184,4.054.184,6.082.184,3.133,0,6.45.184,9.583.184,9.767,0,19.35.184,29.118.184h43.676c.921,0,1.843-.369,2.4.553.553.737-.184,4.423-.184,5.16-.184,7.372-.184,14.743-.369,22.3-.184,36.12,0,72.241-.184,108.361,0,.184.553-.184.553-.369.184-22.667,0-45.335,0-68V248.17c0-7-.369-14.19.369-21.009l-.184-.184H224.776c-5.713,0-11.61.184-17.323-.369l-.184.184V353.03c0,3.133.369,6.819-.369,9.952,0,.184.369.369.553.369,30.96.184,61.737,0,92.7,0A.583.583,0,0,0,299.966,362.428Z" transform="translate(-206.9 -225.318)"/><path class="n" d="M300.166,362.7H208.021c-1.106-.737-.369-3.133-.369-4.239.737-24.142.369-48.284.369-72.241V232.6c0-.737-.553-4.976.553-5.713,0,0,3.317.184,3.5.184,3.5,0,7,.184,10.32.184,11.794.184,23.589.184,35.383.184h33.356c2.58,0,5.529-.553,7.924,0,.553-.184.921-.184,1.106.369v2.027c-.553,44.6-.184,89.2-.369,133.793,0,.184.553-.184.553-.369.184-21.193,0-42.571,0-63.764V237.2c0-3.133-.369-6.634.369-9.767,0-.184-.369-.369-.369-.369H254.094c-15.3,0-30.96.737-46.256-.369h0v68.187c0,15.664,0,31.329-.184,46.809,0,7,.184,14.375-.553,21.377a.18.18,0,0,0,.184.184h92.7C300.35,362.889,300.35,362.7,300.166,362.7Z" transform="translate(-206.731 -225.041)"/><path class="n" d="M300.281,362.373h-91.96c-.921-.737-.369-5.16-.369-5.713.921-43.492.369-86.984.553-130.66l-.553.553c6.819-.184,13.637,0,20.456.184,12.163.184,24.51.184,36.673.184h35.2c.921.737.184,5.16.184,5.713-.553,23.589-.369,47.178-.369,70.767v59.709l.184.184V295.108c0-15.664,0-31.329.184-46.809,0-4.423,0-8.846.184-13.269a38.081,38.081,0,0,1,.369-7.924l-.184-.184H257.895c-9.952,0-19.9,0-29.855-.184H213.85a27.9,27.9,0,0,1-5.529-.369.831.831,0,0,0-.553.553c-.184,22.667,0,45.335,0,68v46.809c0,6.819.553,14.19-.369,21.009l.184.369h92.7C300.65,362.742,300.466,362.373,300.281,362.373Z" transform="translate(-206.478 -225.631)"/><path class="n" d="M299.981,362.773H216.867c-2.4,0-5.713.553-7.924,0a.952.952,0,0,1-1.29-.553v-2.027c.737-24.695.369-49.389.369-73.9V232.482c0-1.106-.553-4.792.369-5.344s4.607-.184,5.16-.184c3.87.184,7.74.184,11.61.184,11.979.184,23.958.184,36.12.184h38.885c.921.553.369,2.949.369,4.054-.921,44.045-.369,88.09-.553,132.135,0,.184.553-.369.553-.553.184-22.667,0-45.335,0-68V235.062a54.427,54.427,0,0,1,.369-7.74l-.184-.369H254.278c-15.48,0-30.96.553-46.441-.553h0v63.948c0,16.955,0,34.093-.184,51.048,0,5.16,0,10.32-.184,15.48a29.771,29.771,0,0,1-.369,5.713l.184.369h92.7C300.35,363.142,299.981,362.773,299.981,362.773Z" transform="translate(-206.731 -225.294)"/><path class="n" d="M257.916,227.084c-1.106,23.773-.553,47.915-.553,71.688V362.72c0,.184.369,0,.369-.184V298.588c0-23.958-.369-47.731.553-71.688C258.1,226.9,257.916,226.9,257.916,227.084Z" transform="translate(-164.482 -224.873)"/></g><rect class="d" width="103.017" height="6.634"/><rect class="d" width="99.7" height="6.082" transform="translate(1.659 9.03)"/><rect class="i" width="23.957" height="6.819" transform="translate(12.716 144.851)"/><rect class="d" width="19.903" height="32.066" transform="translate(14.743 112.6)"/><rect class="i" width="14.19" height="29.302" transform="translate(17.692 115.549)"/><rect class="d" width="14.743" height="20.087" transform="translate(45.703 96.751)"/><rect class="d" width="18.613" height="3.87" transform="translate(43.861 116.839)"/><rect class="d" width="14.743" height="1.843" transform="translate(45.703 120.709)"/><g transform="translate(48.284 99.516)"><rect class="e" width="4.054" height="4.791"/></g><g transform="translate(53.812 99.516)"><rect class="e" width="4.054" height="4.791"/></g><g transform="translate(48.284 105.781)"><rect class="e" width="4.054" height="11.242"/></g><g transform="translate(53.812 105.781)"><rect class="e" width="4.054" height="11.242"/></g><rect class="d" width="14.743" height="20.087" transform="translate(71.135 96.751)"/><rect class="d" width="18.613" height="3.87" transform="translate(69.292 116.839)"/><rect class="d" width="14.743" height="1.843" transform="translate(71.135 120.709)"/><g transform="translate(73.9 99.516)"><rect class="e" width="4.054" height="4.791"/></g><g transform="translate(79.428 99.516)"><rect class="e" width="4.054" height="4.791"/></g><g transform="translate(73.9 105.781)"><rect class="e" width="4.054" height="11.242"/></g><g transform="translate(79.428 105.781)"><rect class="e" width="4.054" height="11.242"/></g><rect class="d" width="14.743" height="20.087" transform="translate(71.135 60.078)"/><rect class="d" width="18.613" height="3.87" transform="translate(69.292 80.35)"/><rect class="d" width="14.743" height="1.843" transform="translate(71.135 84.035)"/><g transform="translate(73.9 62.842)"><rect class="e" width="4.054" height="4.791"/></g><g transform="translate(79.428 62.842)"><rect class="e" width="4.054" height="4.791"/></g><g transform="translate(73.9 69.108)"><rect class="e" width="4.054" height="11.242"/></g><g transform="translate(79.428 69.108)"><rect class="e" width="4.054" height="11.242"/></g><rect class="d" width="14.743" height="20.087" transform="translate(45.703 60.447)"/><rect class="d" width="18.613" height="3.87" transform="translate(43.861 80.534)"/><rect class="d" width="14.743" height="1.843" transform="translate(45.703 84.404)"/><g transform="translate(48.284 63.211)"><rect class="e" width="4.054" height="4.791"/></g><g transform="translate(53.812 63.211)"><rect class="e" width="4.054" height="4.791"/></g><g transform="translate(48.284 69.477)"><rect class="e" width="4.054" height="11.242"/></g><g transform="translate(53.812 69.477)"><rect class="e" width="4.054" height="11.242"/></g><rect class="d" width="14.743" height="20.087" transform="translate(20.087 60.078)"/><rect class="d" width="18.613" height="3.87" transform="translate(18.245 80.35)"/><rect class="d" width="14.743" height="1.843" transform="translate(20.087 84.035)"/><g transform="translate(22.852 62.842)"><rect class="e" width="4.054" height="4.791"/></g><g transform="translate(28.38 62.842)"><rect class="e" width="4.054" height="4.791"/></g><g transform="translate(22.852 69.108)"><rect class="e" width="4.054" height="11.242"/></g><g transform="translate(28.38 69.108)"><rect class="e" width="4.054" height="11.242"/></g><rect class="o" width="14.743" height="20.087" transform="translate(20.087 23.957)"/><rect class="d" width="18.613" height="3.87" transform="translate(18.245 44.045)"/><rect class="d" width="14.743" height="1.843" transform="translate(20.087 47.915)"/><g transform="translate(22.852 26.722)"><rect class="e" width="4.054" height="4.791"/></g><g transform="translate(28.38 26.722)"><rect class="e" width="4.054" height="4.791"/></g><g transform="translate(22.852 32.988)"><rect class="e" width="4.054" height="11.242"/></g><g transform="translate(28.38 32.988)"><rect class="e" width="4.054" height="11.242"/></g><rect class="d" width="14.743" height="20.087" transform="translate(45.703 23.957)"/><rect class="d" width="18.613" height="3.87" transform="translate(43.861 44.045)"/><rect class="d" width="14.743" height="1.843" transform="translate(45.703 47.915)"/><g transform="translate(48.284 26.722)"><rect class="e" width="4.054" height="4.791"/></g><g transform="translate(53.812 26.722)"><rect class="e" width="4.054" height="4.791"/></g><g transform="translate(48.284 32.988)"><rect class="e" width="4.054" height="11.242"/></g><g transform="translate(53.812 32.988)"><rect class="e" width="4.054" height="11.242"/></g><rect class="d" width="14.743" height="20.087" transform="translate(71.135 23.773)"/><rect class="d" width="18.613" height="3.87" transform="translate(69.292 43.861)"/><rect class="d" width="14.743" height="1.843" transform="translate(71.135 47.731)"/><g transform="translate(73.715 26.538)"><rect class="e" width="4.054" height="4.791"/></g><g transform="translate(79.244 26.538)"><rect class="e" width="4.054" height="4.791"/></g><g transform="translate(73.715 32.803)"><rect class="e" width="4.054" height="11.242"/></g><g transform="translate(79.244 32.803)"><rect class="e" width="4.054" height="11.242"/></g></g><path class="p" d="M627.263,348.952H41.226A24.3,24.3,0,0,1,16.9,324.626h0A24.3,24.3,0,0,1,41.226,300.3H627.447a24.3,24.3,0,0,1,24.326,24.326h0A24.58,24.58,0,0,1,627.263,348.952Z" transform="translate(14.245 253.132)"/><path class="q" d="M525.808,360.955H79.277A21.393,21.393,0,0,1,57.9,339.577h0A21.393,21.393,0,0,1,79.277,318.2h446.53a21.393,21.393,0,0,1,21.377,21.377h0A21.393,21.393,0,0,1,525.808,360.955Z" transform="translate(48.803 268.22)"/><path class="r" d="M248.964,56.143s-2.58-12.532,9.03-19.9c9.03-5.713,17.876-.921,17.876-.921S281.215.119,323.6.119c50.311-1.474,52.891,36.12,52.891,36.12s22.115-8.662,32.435,13.269-7.556,33.54-16.4,36.3c-9.03,2.764-143.376,3.87-143.376,3.87S233.3,89.315,233.3,73.835,248.964,56.143,248.964,56.143Z" transform="translate(196.644 0.08)"/><path class="s" d="M12.163,105.085a14.834,14.834,0,0,1,6.819-15.112,14.65,14.65,0,0,1,13.637-.737s4.054-26.722,36.3-26.722C107.071,61.408,109.1,90.157,109.1,90.157s16.77-6.634,24.695,9.952-5.713,25.432-12.532,27.643c-6.819,2.027-109.1,2.764-109.1,2.764S0,130.148,0,118.354,12.163,105.085,12.163,105.085Z" transform="translate(0 52.681)"/><path class="t" d="M37.737,62.614c38.148-1.106,40.175,27.643,40.175,27.643s16.77-6.634,24.695,9.952-5.713,25.432-12.532,27.643c-3.317,1.106-28.012,1.659-53.075,2.211" transform="translate(31.187 52.765)"/><path class="u" d="M282.906.015c49.942-1.29,52.706,36.3,52.706,36.3s22.115-8.662,32.435,13.269-7.556,33.54-16.4,36.3c-4.239,1.29-36.858,2.211-69.845,2.949" transform="translate(237.524 0)"/><rect class="v" width="9.399" height="9.399" transform="translate(75.19 544.587)"/><path class="d" d="M52.456,345.119C33.843,345.119,32,333.508,32,327.427S48.955,238.6,52.456,238.6s21.193,79.244,21.193,87.537C73.649,334.246,71.069,345.119,52.456,345.119Z" transform="translate(26.972 201.127)"/><rect class="v" width="7.003" height="15.665" transform="translate(605.571 537.952)"/><path class="d" d="M339.456,343.019c-18.613,0-20.456-11.61-20.456-17.692S335.955,236.5,339.456,236.5s21.193,79.244,21.193,87.537S358.069,343.019,339.456,343.019Z" transform="translate(268.879 199.357)"/></g></svg>
