<svg id="Layer_1" data-name="Layer 1" xmlns="http://www.w3.org/2000/svg" viewBox="0 0 570.14 137.68"><defs><style>.cls-1{fill:#384936;}.cls-2{fill:#f8d649;}.cls-3{fill:#832d7d;}.cls-4{fill:#1aa37f;}</style></defs><title>logo-verde</title><path class="cls-1" d="M112.91,24.47v4.47a9,9,0,0,1-2,6.28A7.58,7.58,0,0,1,105,37.41a7.59,7.59,0,0,1-5.9-2.19,9,9,0,0,1-2-6.28V11.43a9,9,0,0,1,2-6.28A7.59,7.59,0,0,1,105,3a7.58,7.58,0,0,1,5.89,2.19,9,9,0,0,1,2,6.28V14.7h-5V11.09a3.54,3.54,0,0,0-.75-2.57,3,3,0,0,0-4,0,3.54,3.54,0,0,0-.74,2.57V29.28a3.47,3.47,0,0,0,.74,2.55,3.12,3.12,0,0,0,4,0,3.47,3.47,0,0,0,.75-2.55V24.47Z"/><path class="cls-1" d="M115.7,11.43a8.79,8.79,0,0,1,2.07-6.28,9.22,9.22,0,0,1,11.93,0,8.79,8.79,0,0,1,2.07,6.28V28.94a8.79,8.79,0,0,1-2.07,6.28,9.22,9.22,0,0,1-11.93,0,8.79,8.79,0,0,1-2.07-6.28ZM121,29.28a3.54,3.54,0,0,0,.74,2.57,3,3,0,0,0,4,0,3.59,3.59,0,0,0,.74-2.57V11.09a3.59,3.59,0,0,0-.74-2.57,3,3,0,0,0-4,0,3.54,3.54,0,0,0-.74,2.57Z"/><path class="cls-1" d="M135.19,3.34h5.3V37h-5.3Z"/><path class="cls-1" d="M155.54,27.26l3.61-23.92h7.37V37h-5V12.87L157.85,37h-5l-3.94-23.81V37h-4.63V3.34h7.37Z"/><path class="cls-1" d="M178.35,3.34c2.76,0,4.76.65,6,1.93s1.85,3.22,1.85,5.82v1.2a9.92,9.92,0,0,1-.81,4.29,5.27,5.27,0,0,1-2.6,2.5,5.26,5.26,0,0,1,3.05,2.66,10.41,10.41,0,0,1,.9,4.56V29a8.1,8.1,0,0,1-2,5.94c-1.34,1.36-3.35,2-6,2h-8.33V3.34Zm-2.69,4.82v8.9h2.07a3.34,3.34,0,0,0,2.33-.77,3.71,3.71,0,0,0,.84-2.79V11.62A4.31,4.31,0,0,0,180.25,9a2.45,2.45,0,0,0-2-.81Zm0,13.71V32.22h3a2.7,2.7,0,0,0,2-.73,3.7,3.7,0,0,0,.7-2.59V26a4.89,4.89,0,0,0-.79-3.23,3.45,3.45,0,0,0-2.62-.86Z"/><path class="cls-1" d="M201,37c-.06-.22-.12-.43-.19-.62a5.53,5.53,0,0,1-.17-.72,9.55,9.55,0,0,1-.09-1.11c0-.45,0-1,0-1.68v-5.3a5.21,5.21,0,0,0-.82-3.32,3.31,3.31,0,0,0-2.65-1h-1.83V37H189.9V3.34h8c2.75,0,4.75.65,6,1.93s1.85,3.22,1.85,5.82v2.64q0,5.2-3.47,6.84A4.74,4.74,0,0,1,205,23.24a12,12,0,0,1,.75,4.5v5.19c0,.84,0,1.57.09,2.2a7.5,7.5,0,0,0,.48,1.89ZM195.19,8.16V18.5h2.07a3.34,3.34,0,0,0,2.34-.77,3.73,3.73,0,0,0,.84-2.79V11.62A4.31,4.31,0,0,0,199.79,9a2.49,2.49,0,0,0-2-.81Z"/><path class="cls-1" d="M226.37,37H221l-.92-6.11h-6.49L212.7,37h-4.86l5.39-33.68H221ZM214.29,26.35h5.1l-2.55-17Z"/><path class="cls-1" d="M236.28,8.45V3.34h5.1V7.92l-2.31,5.34h-2.16l1.39-4.81Z"/><path class="cls-1" d="M248.5,7.58A7.81,7.81,0,0,0,251,7.24a4.26,4.26,0,0,0,1.61-.92,4.59,4.59,0,0,0,1-1.34,11.48,11.48,0,0,0,.67-1.64h3.57V37h-5.3V11.33H248.5Z"/><path class="cls-1" d="M280.16,28.94a8.67,8.67,0,0,1-2.11,6.28,9.76,9.76,0,0,1-12.32,0,8.68,8.68,0,0,1-2.12-6.28V26.3a10.84,10.84,0,0,1,.77-4.26,5.55,5.55,0,0,1,2.51-2.77q-3.28-1.78-3.28-6.78V11.43a8.68,8.68,0,0,1,2.12-6.28,9.76,9.76,0,0,1,12.32,0,8.67,8.67,0,0,1,2.11,6.28v1.06q0,4.95-3.27,6.78a5.53,5.53,0,0,1,2.5,2.77,10.66,10.66,0,0,1,.77,4.26ZM268.9,13.5a3.7,3.7,0,0,0,.85,2.79,3.05,3.05,0,0,0,2.14.77,3.11,3.11,0,0,0,2.12-.77,3.66,3.66,0,0,0,.86-2.79V11.62A4.16,4.16,0,0,0,274,8.56a3.24,3.24,0,0,0-4.24,0,4.15,4.15,0,0,0-.87,3.06Zm0,15.3a4.06,4.06,0,0,0,.87,3,3.09,3.09,0,0,0,2.12.77,3,3,0,0,0,2.09-.77,4.23,4.23,0,0,0,.89-3V25.67a4.33,4.33,0,0,0-.79-2.91,3.14,3.14,0,0,0-4.38,0,4.33,4.33,0,0,0-.8,2.91Z"/><polygon class="cls-2" points="38.16 74.82 1.5 74.82 1.5 1.5 38.16 38.16 38.16 74.82"/><polygon class="cls-3" points="74.82 38.16 74.82 1.5 1.5 1.5 38.16 38.16 74.82 38.16"/><path class="cls-4" d="M94.57,58.87q9.38,0,13.58,4.36t4.2,13.19v2.73a22.32,22.32,0,0,1-1.86,9.71,11.83,11.83,0,0,1-5.89,5.67,12,12,0,0,1,6.93,6,23.73,23.73,0,0,1,2,10.3v6.21q0,8.84-4.59,13.47T95.34,135.2H76.47V58.87Zm-6.1,10.91V90h4.68a7.51,7.51,0,0,0,5.29-1.75q1.91-1.74,1.91-6.32V77.62c0-2.76-.49-4.75-1.47-6a5.55,5.55,0,0,0-4.63-1.85Zm0,31.07v23.44h6.87a6.15,6.15,0,0,0,4.63-1.63q1.57-1.65,1.58-5.89v-6.65q0-5.34-1.8-7.31t-5.94-2Z"/><path class="cls-4" d="M132.19,58.87v58.88q0,4.14,1.69,5.78a7.1,7.1,0,0,0,9.05,0c1.12-1.09,1.69-3,1.69-5.78V58.87H156V117q0,9.27-4.53,14.23t-13.35,5q-8.84,0-13.36-5T120.2,117V58.87Z"/><path class="cls-4" d="M164.14,58.87h12V135.2h-12Z"/><path class="cls-4" d="M184.85,58.87h12v65.42h19.74V135.2H184.85Z"/><path class="cls-4" d="M221.81,58.87h19q9,0,13.46,4.8t4.42,14.07v38.59q0,9.27-4.42,14.07t-13.46,4.8h-19Zm12,10.91v54.51h6.76a6,6,0,0,0,4.47-1.63c1.09-1.1,1.64-3,1.64-5.78V77.19q0-4.14-1.64-5.78a6,6,0,0,0-4.47-1.63Z"/><path class="cls-4" d="M308.6,113.06l8.18-54.19h16.68V135.2H322.12V80.46l-8.29,54.74H302.49l-8.94-54v54H283.09V58.87h16.68Z"/><path class="cls-4" d="M381,135.2h-12.1l-2.07-13.85H352.1L350,135.2H339l12.21-76.33h17.56ZM353.63,111h11.56l-5.78-38.6Z"/><path class="cls-4" d="M402.25,104.77l-3.7,7V135.2h-12V58.87h12V92.13l15.7-33.26h12l-16.68,34,16.68,42.31H413.92Z"/><path class="cls-4" d="M443.69,91h16.46v10.9H443.69v22.35H464.4V135.2H431.7V58.87h32.7V69.78H443.69Z"/><path class="cls-4" d="M488.72,58.87h19q9,0,13.47,4.8t4.41,14.07v38.59q0,9.27-4.41,14.07t-13.47,4.8h-19Zm12,10.91v54.51h6.76a6,6,0,0,0,4.47-1.63c1.09-1.1,1.64-3,1.64-5.78V77.19q0-4.14-1.64-5.78a6,6,0,0,0-4.47-1.63Z"/><path class="cls-4" d="M532.22,77.19q0-9.27,4.69-14.23t13.52-5q8.84,0,13.52,5t4.69,14.23v39.69q0,9.27-4.69,14.22t-13.52,5q-8.82,0-13.52-5t-4.69-14.22Zm12,40.45q0,4.15,1.7,5.83a6.89,6.89,0,0,0,9,0q1.69-1.68,1.7-5.83V76.42q0-4.14-1.7-5.83a6.89,6.89,0,0,0-9,0q-1.7,1.69-1.7,5.83Z"/></svg>