<svg xmlns="http://www.w3.org/2000/svg" viewBox="0 0 217.157 304.412"><defs><style>.a{fill:none;stroke:#fff;}.a,.b,.c,.d{stroke-miterlimit:10;}.a,.b{stroke-width:3.901px;}.b{fill:#fff;stroke:#18a37f;}.c{fill:#17a37f;stroke:#17a37f;}.c,.d{stroke-width:0.386px;}.d{fill:#ddd;stroke:#ddd;}.e{fill:#515251;}</style></defs><g transform="translate(1121.497 -1543.514)"><line class="a" y2="24.624" transform="translate(-1012.918 1746.408)"/><line class="a" y2="24.857" transform="translate(-1012.918 1785.9)"/><line class="a" y2="24.857" transform="translate(-1012.918 1823.069)"/><g transform="translate(-1250.799 1545.465)"><circle class="b" cx="106.628" cy="106.628" r="106.628" transform="translate(131.252)"/><g transform="translate(165.401 57.844)"><path class="c" d="M160.064,75.673s-24.624,7.9-26.483,10.454c-2.091,2.555-4.181,14.868-4.181,14.868s25.089,5.111,38.1,5.111,36.936-5.343,36.936-5.343-.465-14.4-3.485-17.191-23.23-8.131-23.23-8.131.7-5.343.929-5.808,7.9-5.575,7.666-17.655c0-3.949.465-19.978-17.423-19.978S151.934,47.1,151.7,52.443c-.465,10.454,7.666,16.958,7.666,17.423C159.6,70.563,160.064,75.673,160.064,75.673Z" transform="translate(-129.4 -20.385)"/><path class="d" d="M190.164,75.673s-24.624,7.9-26.483,10.454c-2.091,2.555-4.181,14.868-4.181,14.868s25.089,5.111,38.1,5.111,36.936-5.343,36.936-5.343-.465-14.4-3.485-17.191-23.23-8.131-23.23-8.131.7-5.343.929-5.808,7.9-5.575,7.666-17.655c0-3.949.465-19.978-17.423-19.978S182.034,47.1,181.8,52.443c-.465,10.454,7.666,16.958,7.666,17.423C189.467,70.563,190.164,75.673,190.164,75.673Z" transform="translate(-89.576 -20.385)"/><path class="e" d="M178.121,84.379s-32.29,10.454-35.078,13.938-5.343,19.514-5.343,19.514,33.22,6.737,50.41,6.737,48.784-6.969,48.784-6.969-.7-18.817-4.646-22.766c-3.949-3.717-30.664-10.918-30.664-10.918s.929-6.969,1.394-7.666c.232-.7,10.454-7.2,10.221-23.463C212.734,47.907,213.431,27,189.736,27,166.274,27,167.2,46.978,166.97,54.18c-.465,13.706,9.989,22.3,10.221,23C177.192,77.642,178.121,84.379,178.121,84.379Z" transform="translate(-118.419 -27)"/></g></g></g></svg>