<svg xmlns="http://www.w3.org/2000/svg" viewBox="0 0 217.157 304.412"><defs><style>.a,.e{fill:#fff;}.a{stroke:#18a37f;}.a,.b,.c,.d,.e{stroke-miterlimit:10;}.a,.b{stroke-width:3.901px;}.b{fill:none;}.b,.e{stroke:#fff;}.c{fill:#e8e8e8;stroke:#e8e8e8;}.c,.d,.e{stroke-width:0.462px;}.d{fill:#17a37f;stroke:#17a37f;}.f{fill:#515251;}</style></defs><g transform="translate(988.66 -2364.049)"><circle class="a" cx="106.628" cy="106.628" r="106.628" transform="translate(-986.71 2366)"/><line class="b" y2="24.857" transform="translate(-880.082 2566.944)"/><line class="b" y2="24.624" transform="translate(-880.082 2606.668)"/><line class="b" y2="24.857" transform="translate(-880.082 2643.604)"/><g transform="translate(-934.441 2419.895)"><path class="c" d="M742.856,128.846H650.631a8.231,8.231,0,0,1-8.131-8.131V34.531a8.231,8.231,0,0,1,8.131-8.131h92.225a8.231,8.231,0,0,1,8.131,8.131v86.185A7.939,7.939,0,0,1,742.856,128.846Z" transform="translate(-642.5 -23.38)"/><path class="d" d="M750.986,53.68V34.631a8.231,8.231,0,0,0-8.131-8.131H650.631a8.231,8.231,0,0,0-8.131,8.131V53.68Z" transform="translate(-642.5 -23.248)"/><circle class="e" cx="3.717" cy="3.717" r="3.717" transform="translate(20.443 9.989)"/><circle class="e" cx="3.717" cy="3.717" r="3.717" transform="translate(81.074 9.989)"/><path class="f" d="M720.756,48.052h-68.53a1.588,1.588,0,0,1-1.626-1.626h0a1.588,1.588,0,0,1,1.626-1.626h68.53a1.588,1.588,0,0,1,1.626,1.626h0A1.588,1.588,0,0,1,720.756,48.052Z" transform="translate(-631.783 0.964)"/><path class="f" d="M720.756,53.952h-68.53a1.588,1.588,0,0,1-1.626-1.626h0a1.588,1.588,0,0,1,1.626-1.626h68.53a1.588,1.588,0,0,1,1.626,1.626h0A1.588,1.588,0,0,1,720.756,53.952Z" transform="translate(-631.783 8.77)"/><path class="f" d="M720.756,59.852h-68.53a1.588,1.588,0,0,1-1.626-1.626h0a1.588,1.588,0,0,1,1.626-1.626h68.53a1.588,1.588,0,0,1,1.626,1.626h0A1.588,1.588,0,0,1,720.756,59.852Z" transform="translate(-631.783 16.576)"/><path class="f" d="M720.756,65.752h-68.53a1.588,1.588,0,0,1-1.626-1.626h0a1.588,1.588,0,0,1,1.626-1.626h68.53a1.588,1.588,0,0,1,1.626,1.626h0A1.588,1.588,0,0,1,720.756,65.752Z" transform="translate(-631.783 24.382)"/><path class="f" d="M653.958,39.968h0a1.832,1.832,0,0,1-1.858-1.858V26.958a1.832,1.832,0,0,1,1.858-1.858h0a1.832,1.832,0,0,1,1.858,1.858V38.109C655.585,39.038,654.888,39.968,653.958,39.968Z" transform="translate(-629.799 -25.1)"/><path class="f" d="M680.058,39.968h0a1.832,1.832,0,0,1-1.858-1.858V26.958a1.832,1.832,0,0,1,1.858-1.858h0a1.832,1.832,0,0,1,1.858,1.858V38.109A1.832,1.832,0,0,1,680.058,39.968Z" transform="translate(-595.267 -25.1)"/></g></g></svg>