<svg xmlns="http://www.w3.org/2000/svg" viewBox="0 0 217.157 304.412"><defs><style>.a{fill:#fff;stroke:#18a37f;}.a,.b,.f{stroke-miterlimit:10;}.a,.b{stroke-width:3.901px;}.b{fill:none;stroke:#fff;}.c{fill:#e8e8e8;}.d,.f{fill:#17a37f;}.e{fill:#515251;}.f{stroke:#17a37f;stroke-width:0.393px;}</style></defs><g transform="translate(643.887 -1557.282)"><circle class="a" cx="106.628" cy="106.628" r="106.628" transform="translate(-641.937 1559.232)"/><line class="b" y2="24.624" transform="translate(-535.309 1760.176)"/><line class="b" y2="24.857" transform="translate(-535.309 1799.668)"/><line class="b" y2="24.857" transform="translate(-535.309 1836.837)"/><path class="c" d="M415.416,117.319s.232-7.666,0-9.524-20.907-13.706-19.049-41.583c.465-2.323,3.949-42.512,46.461-42.512,39.492,1.394,43.441,40.886,43.441,40.886,3.252,29.27-19.281,42.976-19.281,43.906s-.232,8.828-.232,8.828H415.416Z" transform="translate(-976.743 1585.943)"/><path class="d" d="M448.583,44.044c-6.737-2.091-10.454,4.878-12.312,10.918h-.465a7.4,7.4,0,0,1-4.878-2.323,8.921,8.921,0,0,0,2.555-5.343c.232-2.323.232-6.5-2.323-7.666-2.323-.929-4.414,1.162-5.343,3.02a9.346,9.346,0,0,0,.232,8.6c-.232,0-.232,0-.465.232a19.5,19.5,0,0,1-7.2,1.162c-1.394-4.414-3.717-8.363-7.434-9.292-7.434-1.858-4.878,6.969-1.626,9.757a13.192,13.192,0,0,0,6.04,2.788c.232.465.232,1.162.465,1.626,3.485,12.08,4.181,24.857,4.414,37.4,0,2.323,3.717,2.323,3.717,0a171.551,171.551,0,0,0-2.555-30.9c-.465-1.858-.929-4.646-1.626-7.434a21.123,21.123,0,0,0,8.6-1.858,8.964,8.964,0,0,0,7.434,3.949c-.232.7-.232,1.394-.465,1.858-2.091,11.383-1.394,23-.7,34.613.232,2.323,3.717,2.323,3.717,0-.7-12.08-1.626-24.16,1.162-36.007a10.061,10.061,0,0,0,.232-1.162c1.394-.465,3.02-1.162,4.646-1.858C446.492,54.265,455.784,46.134,448.583,44.044Zm-37.633,6.04c-2.323-2.091-.232-2.323,1.394-.7a10.154,10.154,0,0,1,1.394,2.323A5.843,5.843,0,0,1,410.95,50.084Zm17.423-4.878c.929-2.788,1.394.232,1.161,1.858a6.957,6.957,0,0,1-.929,2.323A8.782,8.782,0,0,1,428.373,45.205Zm15.1,6.5a14.81,14.81,0,0,1-3.252,1.858,12.516,12.516,0,0,1,1.626-3.02s4.181-4.646,5.575-3.02C447.886,48.225,443.937,51.477,443.472,51.71Z" transform="translate(-963.681 1606.717)"/><path class="e" d="M455.039,74.092H408.346a4.66,4.66,0,0,1-4.646-4.646h0a4.66,4.66,0,0,1,4.646-4.646h46.693a4.66,4.66,0,0,1,4.646,4.646h0A4.66,4.66,0,0,1,455.039,74.092Z" transform="translate(-966.885 1640.32)"/><path class="e" d="M451.129,77.763H409.081a4.164,4.164,0,0,1-4.181-4.181h0a4.164,4.164,0,0,1,4.181-4.182h42.047a4.164,4.164,0,0,1,4.181,4.182h0A4.164,4.164,0,0,1,451.129,77.763Z" transform="translate(-965.298 1646.406)"/><path class="e" d="M446.721,80.769H409.785a3.421,3.421,0,0,1-3.485-3.485h0a3.421,3.421,0,0,1,3.485-3.485h36.936a3.421,3.421,0,0,1,3.485,3.485h0A3.573,3.573,0,0,1,446.721,80.769Z" transform="translate(-963.445 1652.227)"/><path class="f" d="M411.3,77.5s1.162,6.969,9.989,6.969S431.975,77.5,431.975,77.5Z" transform="translate(-956.83 1657.123)"/></g></svg>