<svg xmlns="http://www.w3.org/2000/svg" viewBox="0 0 652.132 484.926"><defs><style>.a{fill:#515251;}.b{fill:#e8e8e8;}.c{fill:#cacbcb;}.d{fill:#18a37f;}.e{fill:#fff;stroke:#fff;stroke-miterlimit:10;stroke-width:1.136px;}</style></defs><g transform="translate(0 -88.194)"><path class="a" d="M0,199.9,137.393,425.059l283.155-45.538,88.741-99.056L652.132,264.9,429.111,156.5H326.358L209.009,190.362Z" transform="translate(0 148.062)"/><path class="a" d="M407.575,280.465l-88.741,99.056L107.1,190.362,224.643,156.5Z" transform="translate(101.325 148.062)"/><path class="b" d="M18,183.125,100.708,302.03l128.247-59.355L61.4,180.4Z" transform="translate(17.029 170.673)"/><path class="b" d="M72.2,297.654l26.077,36.392,234.892-34.056L371.9,258.927l-117.738-25.1L217.767,220.2Z" transform="translate(68.307 208.327)"/><path class="b" d="M206.3,183.8l80.373-10.9,131.944,68.113-20.823,2.725Z" transform="translate(195.176 163.577)"/><path class="b" d="M155.4,249.754l153.546,31.332,33.667-35.224,85.628-6.033L237.33,179.5Z" transform="translate(147.021 169.822)"/><path class="b" d="M57.2,194.118l149.264,54.3,14.79-5.254,67.334-60.912L241.3,165.9l-80.179,26.467Z" transform="translate(54.116 156.955)"/><path class="b" d="M258.989,158.8l29,15.179-86.211,12.26L179.2,166.584Z" transform="translate(169.538 150.238)"/><path class="c" d="M244.711,293.367,283.438,252.3,165.7,227.2Z" transform="translate(156.766 214.95)"/><path class="c" d="M237.33,179.5,155.4,249.754l153.546,31.332,33.667-35.224" transform="translate(147.021 169.822)"/><path class="c" d="M170.734,243.159l67.334-60.912L190.779,165.9,110.6,192.367" transform="translate(104.637 156.955)"/><path class="d" d="M208.233,328.072S90.9,201.69,90.9,122.241C90.9,87.885,110.379,0,208.54,0,312.069,3.528,324.492,92.793,325.413,113.652,327.867,196.015,208.233,328.072,208.233,328.072Z" transform="translate(117.525 88.194)"/><ellipse class="e" cx="62.118" cy="62.117" rx="62.118" ry="62.117" transform="translate(263.487 138.502)"/></g></svg>